<?xml version="1.0" standalone="no"?>
<!DOCTYPE svg PUBLIC "-//W3C//DTD SVG 20010904//EN"
 "http://www.w3.org/TR/2001/REC-SVG-20010904/DTD/svg10.dtd">
<svg version="1.0" xmlns="http://www.w3.org/2000/svg"
 width="300.000000pt" height="290.000000pt" viewBox="0 0 300.000000 290.000000"
 preserveAspectRatio="xMidYMid meet">
<metadata>
Created by potrace 1.10, written by Peter Selinger 2001-2011
</metadata>
<g transform="translate(0.000000,290.000000) scale(0.100000,-0.100000)"
fill="#000000" stroke="none">
<path d="M711 2789 c-80 -16 -198 -59 -248 -92 -105 -69 -212 -198 -263 -317
-56 -133 -54 -97 -57 -890 -4 -800 -3 -827 53 -949 62 -138 194 -275 326 -341
156 -76 138 -75 978 -75 839 0 827 -1 985 75 191 93 296 222 362 446 15 53 18
132 21 767 4 831 4 827 -80 997 -44 91 -63 117 -142 196 -71 71 -107 98 -166
126 -144 69 -126 68 -968 67 -416 -1 -777 -5 -801 -10z m1633 -19 c187 -48
338 -175 432 -365 81 -165 77 -124 75 -885 -1 -371 -4 -686 -6 -700 -3 -14 -7
-48 -9 -77 -14 -155 -90 -315 -192 -406 -107 -95 -193 -139 -330 -170 -92 -20
-146 -22 -854 -21 -698 0 -737 2 -869 50 -200 72 -381 290 -411 491 -5 37 -12
79 -15 93 -2 14 -6 333 -7 710 -3 619 -1 692 14 759 50 213 212 412 395 486
134 54 130 53 944 54 721 1 759 0 833 -19z"/>
<path d="M814 2485 c-106 -34 -174 -92 -227 -198 l-28 -55 3 -784 4 -783 28
-58 c46 -89 88 -132 174 -174 l77 -38 505 1 c478 0 508 2 538 19 37 22 39 31
15 57 -19 22 -20 22 82 -4 56 -14 183 -1 217 23 30 21 47 66 57 143 l6 51 70
-3 c78 -4 89 -9 60 -24 -11 -7 -50 -41 -87 -76 -68 -65 -81 -97 -27 -65 35 21
149 126 150 139 4 47 8 59 23 70 49 36 58 216 15 326 -62 160 -247 270 -439
262 -25 -1 -56 -5 -70 -9 -19 -6 -22 -5 -14 4 17 18 101 27 174 19 69 -8 72
-9 165 -54 129 -62 135 -64 87 -19 -43 41 -154 93 -223 104 -75 12 -174 1
-250 -30 -194 -76 -330 -307 -299 -507 22 -143 129 -295 247 -352 29 -14 52
-29 53 -33 0 -4 -237 -6 -527 -5 l-528 3 -58 29 c-74 36 -123 84 -156 155
l-26 56 0 790 c0 780 0 791 21 835 35 75 109 135 199 161 16 5 300 9 630 9
503 0 609 -2 658 -15 100 -26 171 -88 202 -176 25 -71 20 -89 -42 -139 -84
-68 -314 -323 -351 -389 -34 -61 -91 -267 -92 -328 0 -43 11 -43 149 7 138 49
163 62 218 113 53 48 167 184 176 210 15 41 -15 15 -144 -126 -58 -63 -134
-120 -113 -85 15 25 49 58 61 58 6 0 30 24 54 53 23 28 57 68 75 87 116 126
141 163 124 190 -12 20 -3 30 29 30 15 0 37 9 49 20 28 26 29 11 2 -20 -11
-13 -17 -26 -14 -29 3 -3 24 14 45 38 63 71 53 127 -35 185 -43 29 -64 31
-118 12 -43 -16 -43 -16 -26 64 11 55 11 58 -20 101 -45 66 -105 116 -154 130
-24 6 -56 16 -73 23 -46 17 -1246 18 -1301 1z m1497 -373 c-6 -12 -11 -29 -11
-39 0 -13 -8 -18 -29 -18 -32 0 -31 5 19 57 28 30 37 30 21 0z m158 2 c60 -39
60 -50 7 -117 -13 -17 -18 -15 -85 34 -39 28 -71 54 -71 58 0 12 65 50 88 50
12 1 40 -11 61 -25z m-132 -140 c40 -31 73 -58 73 -60 0 -6 -253 -299 -261
-302 -4 -2 -15 11 -26 28 -10 17 -39 45 -65 62 -27 16 -48 33 -48 37 0 13 43
66 123 152 43 46 86 96 95 112 9 15 21 27 26 27 5 0 43 -25 83 -56z m-354
-230 c-3 -20 -13 -35 -28 -42 -23 -11 -23 -10 -7 21 14 29 35 57 38 53 1 0 -1
-15 -3 -32z m41 -101 c22 -21 52 -45 66 -54 14 -9 23 -19 20 -22 -10 -9 -185
-76 -189 -72 -2 3 6 37 18 77 11 40 21 81 21 91 0 26 19 21 64 -20z m-118
-168 c17 -16 11 -35 -11 -35 -18 0 -26 15 -19 34 8 20 12 20 30 1z m339 -239
c92 -45 164 -119 194 -201 27 -70 30 -183 8 -255 l-13 -45 -71 4 c-103 5 -132
-4 -149 -44 -7 -19 -17 -66 -20 -104 -4 -44 -13 -76 -22 -83 -9 -8 -48 -13
-106 -12 -81 0 -98 3 -156 31 -36 17 -83 47 -106 66 -52 46 -110 156 -123 233
-25 161 56 327 197 402 80 43 122 52 216 47 65 -3 91 -9 151 -39z"/>
<path d="M2175 1014 c-38 -36 -85 -80 -102 -97 l-33 -31 -74 72 c-41 40 -81
72 -89 72 -52 0 -91 -49 -71 -89 16 -32 222 -221 241 -221 20 0 303 278 303
297 0 6 -9 22 -21 37 -36 46 -73 36 -154 -40z m122 10 c4 -11 -28 -50 -108
-131 -63 -63 -122 -119 -132 -124 -14 -8 -33 5 -105 73 -97 92 -115 117 -100
135 14 18 38 5 109 -59 35 -32 69 -58 77 -58 22 0 67 27 92 57 46 52 129 123
145 123 9 0 18 -7 22 -16z"/>
<path d="M1132 2342 c-15 -16 -58 -63 -96 -104 l-69 -76 -25 29 c-25 31 -50
37 -70 17 -25 -25 -13 -56 38 -98 60 -50 62 -49 154 53 36 41 84 87 106 102
48 33 58 59 34 86 -24 26 -41 24 -72 -9z m-158 -199 c10 4 13 1 10 -8 -9 -24
-33 -25 -49 -2 -21 30 -19 43 5 22 10 -9 26 -15 34 -12z"/>
<path d="M925 2345 c-5 -2 -22 -6 -37 -9 -31 -7 -93 -58 -110 -90 -33 -62 -25
-156 18 -214 35 -45 95 -72 164 -72 69 0 113 22 154 78 24 35 31 55 34 107 3
41 0 65 -6 65 -18 0 -49 -48 -56 -84 -10 -50 -65 -96 -117 -96 -115 0 -184
105 -129 195 27 43 67 59 135 52 49 -5 55 -3 69 18 15 22 15 25 -2 34 -19 10
-102 22 -117 16z"/>
<path d="M1282 2248 c-7 -7 -12 -19 -12 -28 0 -38 14 -40 347 -40 311 0 323 1
333 20 8 15 6 24 -10 40 -19 19 -32 20 -333 20 -230 0 -316 -3 -325 -12z"/>
<path d="M1273 2092 c-18 -18 -16 -36 5 -55 16 -15 53 -17 314 -17 163 0 303
3 312 6 24 9 21 61 -5 74 -32 18 -608 10 -626 -8z"/>
<path d="M860 1861 c-52 -28 -81 -64 -96 -120 -50 -193 178 -329 327 -194 98
89 77 253 -41 313 -51 26 -142 26 -190 1z m158 -61 c88 -40 96 -156 16 -219
-54 -43 -156 -21 -194 42 -52 85 10 196 110 196 14 0 44 -8 68 -19z"/>
<path d="M985 1731 l-36 -39 -25 25 c-24 24 -26 24 -45 7 -10 -9 -19 -23 -19
-29 0 -13 74 -85 88 -85 14 0 112 105 112 121 0 16 -19 39 -32 39 -4 0 -23
-18 -43 -39z"/>
<path d="M1270 1779 c-9 -16 -8 -25 6 -40 16 -18 34 -19 291 -19 l273 0 12 24
c25 56 24 56 -286 56 -279 0 -286 0 -296 -21z"/>
<path d="M2376 1697 c-8 -31 -6 -354 3 -402 7 -39 7 -40 20 -16 7 13 10 37 7
55 -3 17 -6 109 -7 203 0 160 -8 215 -23 160z"/>
<path d="M1288 1643 c-22 -6 -30 -30 -18 -54 10 -18 22 -19 262 -17 226 3 252
5 262 21 8 12 8 22 0 35 -10 15 -34 17 -250 18 -131 1 -246 0 -256 -3z"/>
<path d="M915 1411 c-51 -13 -93 -39 -122 -77 -38 -50 -44 -142 -14 -202 59
-115 215 -143 312 -55 99 89 78 253 -40 312 -45 23 -97 31 -136 22z m112 -82
c46 -29 66 -71 60 -127 -13 -121 -183 -155 -247 -49 -72 117 68 249 187 176z"/>
<path d="M985 1260 c-37 -38 -39 -39 -52 -20 -8 11 -23 20 -33 20 -21 0 -47
-38 -33 -49 4 -3 25 -22 46 -41 l37 -34 55 54 c30 30 55 59 55 66 0 6 -8 18
-18 27 -17 16 -21 14 -57 -23z"/>
<path d="M1274 1326 c-3 -8 -4 -25 -2 -38 l3 -23 200 -3 c110 -1 209 0 220 2
11 3 26 15 34 27 26 43 -1 49 -236 49 -176 0 -215 -3 -219 -14z"/>
<path d="M1269 1158 c-10 -18 -8 -24 11 -40 19 -15 42 -18 161 -18 137 0 139
0 155 25 33 50 20 55 -155 55 -155 0 -161 -1 -172 -22z"/>
<path d="M881 929 c-105 -42 -150 -159 -102 -264 34 -75 85 -105 176 -105 106
0 174 53 196 151 20 85 -36 189 -118 220 -31 11 -121 11 -152 -2z m135 -65
c50 -24 74 -63 74 -119 0 -42 -5 -52 -39 -86 -34 -35 -44 -39 -87 -39 -124 0
-188 127 -107 212 47 51 98 61 159 32z"/>
<path d="M980 784 l-31 -36 -24 22 c-20 19 -27 21 -40 10 -8 -7 -15 -20 -15
-29 0 -18 59 -81 77 -81 12 0 113 105 113 117 0 13 -22 33 -36 33 -7 0 -26
-16 -44 -36z"/>
<path d="M1280 860 c-19 -19 -20 -24 -7 -43 14 -21 22 -22 138 -22 l124 0 3
38 3 37 -105 0 c-57 0 -111 3 -119 6 -9 3 -25 -4 -37 -16z"/>
<path d="M1276 704 c-19 -19 -20 -25 -3 -46 9 -12 40 -17 136 -21 136 -6 175
1 164 30 -17 49 -30 53 -159 53 -98 0 -126 -3 -138 -16z"/>
</g>
</svg>
